<?xml version="1.0" encoding="UTF-8" standalone="no"?>
<svg width="1000" height="1000" xmlns:svg="http://www.w3.org/2000/svg" xmlns="http://www.w3.org/2000/svg" xmlns:xlink="http://www.w3.org/1999/xlink">
    <path d="M 161,88 L 247,88 L 247,172 L 161,172 z" style="stroke: none; fill: #505050;" />
    <path d="M 158,85 L 244,85 L 244,169 L 158,169 z" style="stroke: #000000; fill: #ffffe0;" />
    <text x="175" y="100" style="stroke: none; font-family: Arial; font-size: 10px; fill: #000000;">SomeClass</text>
    <path d="M 158,108 L 244,108" style="stroke: #000000; fill: none;" />
    <text x="163" y="124" style="stroke: none; font-family: Arial; font-size: 10px; fill: #000000;">+</text>
    <text x="169" y="124" style="stroke: none; font-family: Arial; font-size: 10px; fill: #000000;">attr1: Integer</text>
    <text x="163" y="137" style="stroke: none; font-family: Arial; font-size: 10px; fill: #000000;">+</text>
    <text x="169" y="137" style="stroke: none; font-family: Arial; font-size: 10px; fill: #000000;">attr2: String</text>
    <path d="M 158,145 L 244,145" style="stroke: #000000; fill: none;" />
    <text x="163" y="161" style="stroke: none; font-family: Arial; font-size: 10px; fill: #000000;">+</text>
    <text x="169" y="161" style="stroke: none; font-family: Arial; font-size: 10px; fill: #000000;">Method(): Real</text>
    <path d="M 165,226 L 248,226 L 248,286 L 165,286 z" style="stroke: none; fill: #505050;" />
    <path d="M 162,223 L 245,223 L 245,283 L 162,283 z" style="stroke: #000000; fill: #ffffe0;" />
    <text x="173" y="238" style="stroke: none; font-family: Arial; font-size: 10px; fill: #000000;">SecondClass</text>
    <path d="M 162,246 L 245,246" style="stroke: #000000; fill: none;" />
    <text x="167" y="262" style="stroke: none; font-family: Arial; font-size: 10px; fill: #000000;">#</text>
    <text x="173" y="262" style="stroke: none; font-family: Arial; font-size: 10px; fill: #000000;">Attr: Real</text>
    <text x="167" y="275" style="stroke: none; font-family: Arial; font-size: 10px; fill: #000000;">+</text>
    <text x="173" y="275" style="stroke: none; font-family: Arial; font-size: 10px; fill: #000000;">attr2: Boolean</text>
    <path d="M 202,223 L 201,169" style="stroke-dashoffset: 0; stroke: #000000; stroke-dasharray: none; stroke-miterlimit: 4; stroke-width: 1; fill: none;" />
    <path d="M 206,178 L 201,169 L 196,179 L 201,188 z" style="stroke: none; fill: #000000;" />
    <path d="M 201,169 L 202,223" style="stroke-dashoffset: 0; stroke: #000000; stroke-dasharray: none; stroke-miterlimit: 4; stroke-width: 1; fill: none;" />
    <path d="M 197,213 L 202,223 L 207,212 L 202,203 z" style="stroke: none; fill: #000000;" />
    <path d="M 244,126 L 309,125" style="stroke-dashoffset: 0; stroke: #000000; stroke-dasharray: none; stroke-miterlimit: 4; stroke-width: 1; fill: none;" />
    <path d="M 309,125 L 310,172" style="stroke-dashoffset: 0; stroke: #000000; stroke-dasharray: none; stroke-miterlimit: 4; stroke-width: 1; fill: none;" />
    <path d="M 310,172 L 244,144" style="stroke-dashoffset: 0; stroke: #000000; stroke-dasharray: none; stroke-miterlimit: 4; stroke-width: 1; fill: none;" />
    <path d="M 255,143 L 244,144 L 251,153 L 262,152 z" style="stroke: #000000; fill: #ffffff;" />
    <path d="M 303,148 L 315,148 L 315,161 L 303,161 z" style="stroke: #ffffff; fill: #ffffff;" />
    <text x="303.620869607" y="158.180871527" style="stroke: none; font-family: Arial; font-size: 10px; fill: #000000;">bu</text>
    <path d="M 241,120 L 247,120 L 247,133 L 241,133 z" style="stroke: #ffffff; fill: #ffffff;" />
    <text x="241.0" y="130.203703704" style="stroke: none; font-family: Arial; font-size: 10px; fill: #000000;">1</text>
    <path d="M 242,138 L 246,138 L 246,151 L 242,151 z" style="stroke: #ffffff; fill: #ffffff;" />
    <text x="242.0" y="148.752293578" style="stroke: none; font-family: Arial; font-size: 10px; fill: #000000;">*</text>
    <path d="M 158,126 L 125,126" style="stroke-dashoffset: 0; stroke: #000000; stroke-dasharray: none; stroke-miterlimit: 4; stroke-width: 1; fill: none;" />
    <path d="M 125,126 L 158,126" style="stroke-dashoffset: 0; stroke: #000000; stroke-dasharray: none; stroke-miterlimit: 4; stroke-width: 1; fill: none;" />
    <path d="M 147,131 L 158,126 L 148,121 L 138,126 z" style="stroke: #000000; fill: #ffffff;" />
    <path d="M 119,120 L 131,120 L 131,133 L 119,133 z" style="stroke: #ffffff; fill: #ffffff;" />
    <text x="119.014511257" y="130.000190938" style="stroke: none; font-family: Arial; font-size: 10px; fill: #000000;">hu</text>
</svg>
